<svg width="164" height="19" viewBox="0 0 164 19" fill="none" xmlns="http://www.w3.org/2000/svg">
<path d="M160.089 7.79169C160.837 8.36369 161.431 8.88436 161.871 9.35369C162.311 9.82302 162.663 10.4024 162.927 11.0917C163.191 11.781 163.323 12.6317 163.323 13.6437C163.323 15.1397 163.03 16.2764 162.443 17.0537C161.871 17.831 160.954 18.2197 159.693 18.2197C158.71 18.2197 157.933 18.029 157.361 17.6477C156.789 17.2664 156.371 16.6284 156.107 15.7337C155.843 14.8244 155.711 13.5777 155.711 11.9937H157.911C157.911 13.1084 157.97 13.9517 158.087 14.5237C158.204 15.0957 158.388 15.4917 158.637 15.7117C158.886 15.917 159.238 16.0197 159.693 16.0197C160.221 16.0197 160.588 15.851 160.793 15.5137C161.013 15.1764 161.123 14.553 161.123 13.6437C161.123 13.013 161.05 12.4924 160.903 12.0817C160.756 11.6564 160.529 11.275 160.221 10.9377C159.913 10.6004 159.466 10.197 158.879 9.72769C158.204 9.19969 157.662 8.73036 157.251 8.31969C156.84 7.89436 156.496 7.36636 156.217 6.73569C155.953 6.09035 155.821 5.32035 155.821 4.42569C155.821 3.07635 156.122 2.03502 156.723 1.30169C157.324 0.553687 158.241 0.179688 159.473 0.179688C160.749 0.179688 161.688 0.612354 162.289 1.47769C162.905 2.32835 163.213 3.67769 163.213 5.52569H161.013C161.013 4.29369 160.888 3.46502 160.639 3.03969C160.39 2.59969 160.001 2.37969 159.473 2.37969C158.974 2.37969 158.608 2.53369 158.373 2.84169C158.138 3.14969 158.021 3.67769 158.021 4.42569C158.021 5.17369 158.182 5.78235 158.505 6.25169C158.828 6.72102 159.356 7.23436 160.089 7.79169Z" fill="#080808"/>
<path d="M150.9 0.179688C152.205 0.179688 153.166 0.561021 153.782 1.32369C154.398 2.08635 154.706 3.34036 154.706 5.08569V13.3137C154.706 15.059 154.398 16.313 153.782 17.0757C153.166 17.8384 152.205 18.2197 150.9 18.2197C149.594 18.2197 148.634 17.8384 148.018 17.0757C147.402 16.313 147.094 15.059 147.094 13.3137V5.08569C147.094 3.34036 147.402 2.08635 148.018 1.32369C148.634 0.561021 149.594 0.179688 150.9 0.179688ZM152.506 5.08569C152.506 4.38169 152.454 3.83902 152.352 3.45769C152.264 3.07636 152.102 2.80502 151.868 2.64369C151.648 2.46769 151.325 2.37969 150.9 2.37969C150.474 2.37969 150.144 2.46769 149.91 2.64369C149.69 2.80502 149.528 3.07636 149.426 3.45769C149.338 3.83902 149.294 4.38169 149.294 5.08569V13.3137C149.294 14.0177 149.338 14.5604 149.426 14.9417C149.528 15.323 149.69 15.6017 149.91 15.7777C150.144 15.939 150.474 16.0197 150.9 16.0197C151.325 16.0197 151.648 15.939 151.868 15.7777C152.102 15.6017 152.264 15.323 152.352 14.9417C152.454 14.5604 152.506 14.0177 152.506 13.3137V5.08569Z" fill="#080808"/>
<path d="M145.989 17.9984H143.789V0.398438H145.989V17.9984Z" fill="#080808"/>
<path d="M137.663 0.398438C138.91 0.398438 139.885 0.530437 140.589 0.794436C141.308 1.04377 141.836 1.50577 142.173 2.18044C142.511 2.84044 142.679 3.80844 142.679 5.08444V13.3124C142.679 14.5738 142.511 15.5418 142.173 16.2164C141.836 16.8911 141.308 17.3604 140.589 17.6244C139.885 17.8738 138.91 17.9984 137.663 17.9984H135.023V0.398438H137.663ZM137.223 2.59844V15.7984H137.685C138.448 15.7984 139.02 15.7398 139.401 15.6224C139.783 15.5051 140.054 15.2704 140.215 14.9184C140.391 14.5664 140.479 14.0311 140.479 13.3124V5.08444C140.479 4.36577 140.391 3.83044 140.215 3.47844C140.054 3.12644 139.783 2.89177 139.401 2.77444C139.02 2.6571 138.448 2.59844 137.685 2.59844H137.223Z" fill="#080808"/>
<path d="M131.709 0.398438H133.909V13.3124C133.909 15.0578 133.601 16.3118 132.985 17.0744C132.369 17.8371 131.408 18.2184 130.103 18.2184C128.798 18.2184 127.837 17.8371 127.221 17.0744C126.605 16.3118 126.297 15.0578 126.297 13.3124V0.398438H128.497V13.3124C128.497 14.0164 128.541 14.5591 128.629 14.9404C128.732 15.3218 128.893 15.6004 129.113 15.7764C129.348 15.9378 129.678 16.0184 130.103 16.0184C130.528 16.0184 130.851 15.9378 131.071 15.7764C131.306 15.6004 131.467 15.3218 131.555 14.9404C131.658 14.5591 131.709 14.0164 131.709 13.3124V0.398438Z" fill="#080808"/>
<path d="M118.242 0.398438H125.414V2.59844H122.928V17.9984H120.728V2.59844H118.242V0.398438Z" fill="#080808"/>
<path d="M114.565 7.79169C115.313 8.36369 115.907 8.88436 116.347 9.35369C116.787 9.82302 117.139 10.4024 117.403 11.0917C117.667 11.781 117.799 12.6317 117.799 13.6437C117.799 15.1397 117.506 16.2764 116.919 17.0537C116.347 17.831 115.431 18.2197 114.169 18.2197C113.187 18.2197 112.409 18.029 111.837 17.6477C111.265 17.2664 110.847 16.6284 110.583 15.7337C110.319 14.8244 110.188 13.5777 110.188 11.9937H112.387C112.387 13.1084 112.446 13.9517 112.563 14.5237C112.681 15.0957 112.864 15.4917 113.113 15.7117C113.363 15.917 113.715 16.0197 114.169 16.0197C114.697 16.0197 115.064 15.851 115.27 15.5137C115.49 15.1764 115.599 14.553 115.599 13.6437C115.599 13.013 115.526 12.4924 115.379 12.0817C115.233 11.6564 115.005 11.275 114.697 10.9377C114.389 10.6004 113.942 10.197 113.355 9.72769C112.681 9.19969 112.138 8.73036 111.727 8.31969C111.317 7.89436 110.972 7.36636 110.693 6.73569C110.429 6.09035 110.298 5.32035 110.298 4.42569C110.298 3.07635 110.598 2.03502 111.199 1.30169C111.801 0.553687 112.717 0.179688 113.949 0.179688C115.225 0.179688 116.164 0.612354 116.765 1.47769C117.381 2.32835 117.689 3.67769 117.689 5.52569H115.489C115.489 4.29369 115.365 3.46502 115.115 3.03969C114.866 2.59969 114.477 2.37969 113.949 2.37969C113.451 2.37969 113.084 2.53369 112.849 2.84169C112.615 3.14969 112.497 3.67769 112.497 4.42569C112.497 5.17369 112.659 5.78235 112.981 6.25169C113.304 6.72102 113.832 7.23436 114.565 7.79169Z" fill="#080808"/>
<path d="M102.105 7.79169C102.853 8.36369 103.447 8.88436 103.887 9.35369C104.327 9.82302 104.679 10.4024 104.943 11.0917C105.207 11.781 105.339 12.6317 105.339 13.6437C105.339 15.1397 105.045 16.2764 104.459 17.0537C103.887 17.831 102.97 18.2197 101.709 18.2197C100.726 18.2197 99.9486 18.029 99.3766 17.6477C98.8046 17.2664 98.3866 16.6284 98.1226 15.7337C97.8586 14.8244 97.7266 13.5777 97.7266 11.9937H99.9266C99.9266 13.1084 99.9852 13.9517 100.103 14.5237C100.22 15.0957 100.403 15.4917 100.653 15.7117C100.902 15.917 101.254 16.0197 101.709 16.0197C102.237 16.0197 102.603 15.851 102.809 15.5137C103.029 15.1764 103.139 14.553 103.139 13.6437C103.139 13.013 103.065 12.4924 102.919 12.0817C102.772 11.6564 102.545 11.275 102.237 10.9377C101.929 10.6004 101.481 10.197 100.895 9.72769C100.22 9.19969 99.6772 8.73036 99.2666 8.31969C98.8559 7.89436 98.5112 7.36636 98.2326 6.73569C97.9686 6.09035 97.8366 5.32035 97.8366 4.42569C97.8366 3.07635 98.1372 2.03502 98.7386 1.30169C99.3399 0.553687 100.257 0.179688 101.489 0.179688C102.765 0.179688 103.703 0.612354 104.305 1.47769C104.921 2.32835 105.229 3.67769 105.229 5.52569H103.029C103.029 4.29369 102.904 3.46502 102.655 3.03969C102.405 2.59969 102.017 2.37969 101.489 2.37969C100.99 2.37969 100.623 2.53369 100.389 2.84169C100.154 3.14969 100.037 3.67769 100.037 4.42569C100.037 5.17369 100.198 5.78235 100.521 6.25169C100.843 6.72102 101.371 7.23436 102.105 7.79169Z" fill="#080808"/>
<path d="M93.4874 7.79169C94.2354 8.36369 94.8294 8.88436 95.2694 9.35369C95.7094 9.82302 96.0614 10.4024 96.3254 11.0917C96.5894 11.781 96.7214 12.6317 96.7214 13.6437C96.7214 15.1397 96.428 16.2764 95.8414 17.0537C95.2694 17.831 94.3527 18.2197 93.0914 18.2197C92.1087 18.2197 91.3314 18.029 90.7594 17.6477C90.1874 17.2664 89.7694 16.6284 89.5054 15.7337C89.2414 14.8244 89.1094 13.5777 89.1094 11.9937H91.3094C91.3094 13.1084 91.368 13.9517 91.4854 14.5237C91.6027 15.0957 91.786 15.4917 92.0354 15.7117C92.2847 15.917 92.6367 16.0197 93.0914 16.0197C93.6194 16.0197 93.986 15.851 94.1914 15.5137C94.4114 15.1764 94.5214 14.553 94.5214 13.6437C94.5214 13.013 94.448 12.4924 94.3014 12.0817C94.1547 11.6564 93.9274 11.275 93.6194 10.9377C93.3114 10.6004 92.864 10.197 92.2774 9.72769C91.6027 9.19969 91.06 8.73036 90.6494 8.31969C90.2387 7.89436 89.894 7.36636 89.6154 6.73569C89.3514 6.09035 89.2194 5.32035 89.2194 4.42569C89.2194 3.07635 89.52 2.03502 90.1214 1.30169C90.7227 0.553687 91.6394 0.179688 92.8714 0.179688C94.1474 0.179688 95.086 0.612354 95.6874 1.47769C96.3034 2.32835 96.6114 3.67769 96.6114 5.52569H94.4114C94.4114 4.29369 94.2867 3.46502 94.0374 3.03969C93.788 2.59969 93.3994 2.37969 92.8714 2.37969C92.3727 2.37969 92.006 2.53369 91.7714 2.84169C91.5367 3.14969 91.4194 3.67769 91.4194 4.42569C91.4194 5.17369 91.5807 5.78235 91.9034 6.25169C92.226 6.72102 92.754 7.23436 93.4874 7.79169Z" fill="#080808"/>
<path d="M82.7266 0.398438H88.3366V2.59844H84.9266V8.09844H88.3366V10.2984H84.9266V15.7984H88.3366V17.9984H82.7266V0.398438Z" fill="#080808"/>
<path d="M72.8438 0.398438H75.0437L79.4217 12.1024V0.398438H81.6217V17.9984H79.4217L75.0437 6.27244V17.9984H72.8438V0.398438Z" fill="#080808"/>
<path d="M64.7891 0.398438H71.9611V2.59844H69.4751V17.9984H67.2751V2.59844H64.7891V0.398438Z" fill="#080808"/>
<path d="M63.8953 17.9984H61.6953V0.398438H63.8953V17.9984Z" fill="#080808"/>
<path d="M54.9922 0.398438H60.6022V2.59844H57.1922V8.97844H60.6022V11.1784H57.1922V17.9984H54.9922V0.398438Z" fill="#080808"/>
<path d="M41.3672 0.398438H43.5672L47.9452 12.1024V0.398438H50.1452V17.9984H47.9452L43.5672 6.27244V17.9984H41.3672V0.398438Z" fill="#080808"/>
<path d="M40.5917 17.9984H38.3917L37.9517 14.4564H35.0697L34.6297 17.9984H32.4297L34.9817 0.398438H38.0617L40.5917 17.9984ZM36.5217 2.97244L35.3557 12.2564H37.6877L36.5217 2.97244Z" fill="#080808"/>
<path d="M31.6453 17.9984H29.4453V0.398438H31.6453V17.9984Z" fill="#080808"/>
<path d="M25.1046 7.79169C25.8526 8.36369 26.4466 8.88436 26.8866 9.35369C27.3266 9.82302 27.6786 10.4024 27.9426 11.0917C28.2066 11.781 28.3386 12.6317 28.3386 13.6437C28.3386 15.1397 28.0452 16.2764 27.4586 17.0537C26.8866 17.831 25.9699 18.2197 24.7086 18.2197C23.7259 18.2197 22.9486 18.029 22.3766 17.6477C21.8046 17.2664 21.3866 16.6284 21.1226 15.7337C20.8586 14.8244 20.7266 13.5777 20.7266 11.9937H22.9266C22.9266 13.1084 22.9852 13.9517 23.1026 14.5237C23.2199 15.0957 23.4032 15.4917 23.6526 15.7117C23.9019 15.917 24.2539 16.0197 24.7086 16.0197C25.2366 16.0197 25.6032 15.851 25.8086 15.5137C26.0286 15.1764 26.1386 14.553 26.1386 13.6437C26.1386 13.013 26.0652 12.4924 25.9186 12.0817C25.7719 11.6564 25.5446 11.275 25.2366 10.9377C24.9286 10.6004 24.4812 10.197 23.8946 9.72769C23.2199 9.19969 22.6772 8.73036 22.2666 8.31969C21.8559 7.89436 21.5112 7.36636 21.2326 6.73569C20.9686 6.09035 20.8366 5.32035 20.8366 4.42569C20.8366 3.07635 21.1372 2.03502 21.7386 1.30169C22.3399 0.553687 23.2566 0.179688 24.4886 0.179688C25.7646 0.179688 26.7032 0.612354 27.3046 1.47769C27.9206 2.32835 28.2286 3.67769 28.2286 5.52569H26.0286C26.0286 4.29369 25.9039 3.46502 25.6546 3.03969C25.4052 2.59969 25.0166 2.37969 24.4886 2.37969C23.9899 2.37969 23.6232 2.53369 23.3886 2.84169C23.1539 3.14969 23.0366 3.67769 23.0366 4.42569C23.0366 5.17369 23.1979 5.78235 23.5206 6.25169C23.8432 6.72102 24.3712 7.23436 25.1046 7.79169Z" fill="#080808"/>
<path d="M17.1193 17.9984H14.9192V11.8384L11.5312 0.398438H13.8632L16.0192 9.02244L18.1753 0.398438H20.5073L17.1193 11.8384V17.9984Z" fill="#080808"/>
<path d="M7.25 0.398438H9.45V15.7984H12.86V17.9984H7.25V0.398438Z" fill="#080808"/>
<path d="M0.546875 0.398438H6.15687V2.59844H2.74688V8.09844H6.15687V10.2984H2.74688V15.7984H6.15687V17.9984H0.546875V0.398438Z" fill="#080808"/>
</svg>
